<?xml version="1.0" standalone="no"?>
<!DOCTYPE svg PUBLIC "-//W3C//DTD SVG 20010904//EN"
 "http://www.w3.org/TR/2001/REC-SVG-20010904/DTD/svg10.dtd">
<svg version="1.0" xmlns="http://www.w3.org/2000/svg"
 width="1024.000000pt" height="1024.000000pt" viewBox="0 0 1024.000000 1024.000000"
 preserveAspectRatio="xMidYMid meet">
<metadata>
Created by potrace 1.11, written by Peter Selinger 2001-2013
</metadata>
<g transform="translate(0.000000,1024.000000) scale(0.100000,-0.100000)"
fill="#000000" stroke="none">
<path d="M0 5120 l0 -5120 5120 0 5120 0 0 5120 0 5120 -5120 0 -5120 0 0
-5120z m7385 2681 c107 -12 199 -26 275 -41 30 -6 74 -14 98 -17 23 -3 42 -9
42 -14 0 -5 18 -9 39 -9 22 0 43 -4 46 -10 3 -5 19 -10 35 -10 16 0 32 -4 35
-10 3 -5 19 -10 35 -10 16 0 32 -4 35 -10 3 -5 19 -10 36 -10 16 0 29 -4 29
-10 0 -5 10 -10 23 -10 13 0 27 -4 32 -8 6 -4 28 -14 50 -21 22 -7 51 -17 65
-23 14 -6 34 -14 45 -18 44 -16 75 -30 193 -86 l124 -59 -6 -50 c-10 -95 -18
-140 -27 -150 -5 -5 -9 -21 -9 -36 0 -15 -4 -31 -10 -34 -5 -3 -10 -15 -10
-26 0 -10 -4 -19 -10 -19 -5 0 -10 -6 -10 -14 0 -15 -56 -127 -68 -136 -4 -3
-20 -23 -36 -44 -38 -50 -107 -116 -123 -116 -6 0 -15 5 -18 10 -3 6 -15 10
-26 10 -10 0 -19 5 -19 10 0 6 -6 10 -13 10 -7 0 -39 13 -72 30 -33 16 -68 30
-77 30 -10 0 -18 4 -18 8 0 5 -22 15 -50 22 -27 7 -50 17 -50 22 0 4 -11 8
-24 8 -14 0 -28 5 -31 10 -3 6 -16 10 -29 10 -12 0 -26 4 -31 9 -13 12 -146
54 -255 81 -47 11 -94 25 -105 30 -11 5 -38 11 -60 14 -22 3 -76 11 -120 18
-99 15 -481 15 -550 0 -27 -6 -63 -14 -80 -17 -35 -8 -40 -9 -169 -69 -54 -25
-106 -54 -115 -64 -9 -10 -32 -29 -51 -42 -96 -67 -160 -155 -220 -305 -17
-43 -28 -161 -20 -205 5 -25 9 -66 10 -92 0 -26 5 -50 10 -53 6 -3 10 -14 10
-23 1 -30 55 -139 90 -182 60 -71 64 -75 100 -100 19 -14 44 -32 54 -42 11
-10 26 -18 33 -18 7 0 13 -4 13 -9 0 -5 8 -11 18 -14 23 -8 76 -40 80 -49 2
-5 10 -8 18 -8 7 0 30 -10 51 -21 46 -26 239 -109 253 -109 5 0 10 -4 10 -10
0 -5 7 -10 15 -10 8 0 23 -4 33 -9 9 -5 28 -13 42 -19 14 -5 48 -20 75 -32 28
-12 61 -27 75 -32 14 -6 33 -14 42 -19 10 -5 25 -9 33 -9 8 0 15 -4 15 -10 0
-5 7 -10 15 -10 8 0 24 -4 35 -10 11 -5 29 -14 40 -20 11 -5 27 -10 35 -10 8
0 15 -4 15 -10 0 -5 7 -10 15 -10 8 0 23 -4 33 -9 22 -11 111 -51 137 -61 82
-33 384 -180 450 -220 28 -17 58 -33 68 -37 9 -3 17 -9 17 -14 0 -5 6 -9 13
-9 7 0 23 -9 35 -20 12 -11 25 -20 30 -20 4 0 17 -8 28 -18 10 -10 35 -28 54
-42 81 -56 310 -287 310 -313 0 -5 8 -17 18 -26 19 -18 51 -67 59 -93 3 -10 9
-18 14 -18 5 0 9 -9 9 -20 0 -11 5 -20 10 -20 6 0 10 -7 10 -15 0 -8 4 -23 9
-33 5 -9 13 -28 19 -42 5 -14 17 -42 26 -62 54 -122 83 -469 57 -659 -14 -101
-51 -272 -60 -279 -4 -3 -13 -25 -21 -50 -16 -54 -91 -214 -102 -218 -4 -2 -8
-10 -8 -18 0 -8 -3 -14 -8 -14 -4 0 -14 -15 -21 -33 -8 -17 -22 -39 -31 -47
-9 -8 -27 -31 -40 -50 -56 -80 -216 -224 -340 -305 -25 -17 -46 -33 -48 -37
-2 -5 -12 -8 -23 -8 -10 0 -19 -4 -19 -10 0 -5 -9 -10 -20 -10 -11 0 -20 -4
-20 -10 0 -5 -7 -10 -15 -10 -8 0 -30 -9 -50 -20 -20 -11 -42 -20 -50 -20 -8
0 -15 -4 -15 -10 0 -5 -13 -10 -30 -10 -16 0 -30 -4 -30 -10 0 -5 -13 -10 -30
-10 -16 0 -30 -4 -30 -10 0 -5 -13 -10 -30 -10 -16 0 -30 -4 -30 -10 0 -5 -18
-10 -39 -10 -22 0 -42 -4 -45 -9 -3 -5 -23 -12 -43 -15 -231 -40 -278 -45
-516 -57 -275 -13 -528 0 -752 41 -33 6 -77 13 -98 16 -20 4 -40 10 -43 15 -3
5 -23 9 -45 9 -21 0 -39 5 -39 10 0 6 -10 10 -22 10 -23 0 -81 16 -110 31 -10
5 -29 9 -43 9 -14 0 -25 5 -25 10 0 6 -9 10 -20 10 -11 0 -30 5 -43 12 -44 23
-57 28 -67 28 -6 0 -30 9 -55 20 -25 11 -66 29 -92 41 -54 23 -227 117 -288
155 -22 14 -48 27 -57 31 -10 3 -18 9 -18 14 0 5 -6 9 -13 9 -7 0 -23 9 -35
20 -12 11 -25 20 -29 20 -4 0 -21 11 -37 25 -16 14 -32 25 -36 25 -4 0 -25 16
-46 35 -21 19 -42 35 -46 35 -5 0 -21 11 -36 24 -15 13 -60 52 -100 87 -41 35
-90 78 -110 94 -50 41 -276 268 -337 339 -27 32 -59 68 -70 79 -11 12 -31 38
-45 57 -13 19 -31 42 -40 50 -9 8 -27 31 -40 50 -14 19 -34 45 -45 56 -11 12
-32 37 -46 55 -15 19 -47 59 -71 89 -24 30 -55 71 -68 90 -13 19 -32 44 -42
54 -10 11 -18 23 -18 28 0 4 -18 27 -40 49 -22 23 -40 46 -40 51 0 13 -269
281 -310 309 -19 13 -44 31 -54 41 -11 10 -26 18 -33 18 -7 0 -13 5 -13 10 0
6 -9 10 -20 10 -11 0 -20 5 -20 10 0 6 -9 10 -20 10 -11 0 -20 4 -20 8 0 5
-23 15 -51 22 -27 8 -52 18 -55 22 -3 4 -16 8 -29 8 -13 0 -27 5 -30 10 -3 6
-19 10 -34 10 -15 0 -31 4 -36 9 -6 5 -28 11 -50 14 -22 3 -60 10 -85 17 -32
8 -138 11 -363 8 -266 -3 -320 -6 -327 -18 -6 -9 -10 -476 -10 -1167 l0 -1151
-58 -7 c-75 -9 -624 -9 -684 0 -36 5 -47 12 -52 28 -3 12 -6 1179 -6 2593 l0
2572 22 14 c61 40 658 43 750 5 l28 -12 0 -1081 c0 -1022 1 -1082 18 -1085 28
-6 464 8 499 16 18 4 33 11 33 16 0 5 6 9 14 9 17 0 116 108 116 127 0 7 4 13
8 13 5 0 14 16 22 35 8 19 17 35 22 35 4 0 8 9 8 20 0 11 5 20 10 20 6 0 10 7
10 15 0 8 5 15 10 15 6 0 10 7 10 15 0 8 5 15 10 15 6 0 10 9 10 20 0 11 4 20
9 20 5 0 11 8 14 18 6 18 38 73 47 82 3 3 28 43 55 90 27 47 52 87 55 90 3 3
12 19 20 35 8 17 17 32 20 35 3 3 17 26 30 53 14 26 28 47 31 47 3 0 11 16 19
35 8 19 17 35 22 35 4 0 8 7 8 15 0 8 5 15 10 15 6 0 10 9 10 20 0 11 4 20 8
20 5 0 14 16 22 35 8 19 17 35 22 35 4 0 8 7 8 15 0 8 4 15 8 15 5 0 14 16 22
35 8 19 17 35 22 35 4 0 8 5 8 10 0 6 17 37 37 70 21 32 50 80 65 107 33 56
51 86 58 93 3 3 14 23 26 45 11 22 30 56 42 76 11 20 26 47 34 60 7 13 15 26
18 29 5 5 18 27 44 75 6 11 13 22 16 25 3 3 17 26 30 53 14 26 28 47 32 47 5
0 8 9 8 20 0 11 5 20 10 20 6 0 10 5 10 11 0 15 97 148 131 179 61 57 89 80
99 80 6 0 18 4 28 9 53 28 105 32 342 28 135 -3 267 -8 294 -12 50 -7 85 -34
86 -65 0 -16 -110 -221 -130 -240 -3 -3 -12 -18 -20 -35 -8 -16 -17 -32 -20
-35 -10 -10 -41 -65 -47 -82 -3 -10 -8 -18 -12 -18 -4 0 -13 -16 -21 -35 -8
-19 -17 -35 -22 -35 -4 0 -8 -7 -8 -15 0 -8 -4 -15 -10 -15 -5 0 -10 -9 -10
-20 0 -11 -4 -20 -9 -20 -5 0 -11 -8 -14 -17 -6 -18 -37 -73 -47 -83 -3 -3
-12 -18 -20 -35 -8 -16 -18 -32 -21 -35 -4 -3 -16 -23 -28 -45 -29 -53 -67
-117 -78 -131 -4 -5 -14 -21 -21 -33 -39 -68 -57 -100 -76 -136 -12 -22 -23
-42 -26 -45 -3 -3 -10 -14 -16 -25 -26 -48 -39 -70 -44 -75 -3 -3 -11 -15 -17
-27 -7 -13 -19 -33 -25 -45 -7 -13 -15 -25 -18 -28 -3 -3 -17 -26 -30 -52 -14
-27 -28 -48 -32 -48 -5 0 -8 -9 -8 -20 0 -11 -3 -20 -7 -20 -5 0 -21 -24 -37
-53 -42 -76 -89 -152 -98 -155 -5 -2 -8 -12 -8 -23 0 -10 -4 -19 -9 -19 -5 0
-11 -8 -14 -17 -6 -19 -38 -75 -48 -83 -3 -3 -12 -20 -20 -37 -8 -18 -16 -33
-20 -33 -3 0 -11 -16 -19 -35 -8 -19 -17 -35 -22 -35 -4 0 -8 -7 -8 -15 0 -8
-4 -15 -10 -15 -5 0 -10 -6 -10 -13 0 -7 -9 -23 -20 -35 -11 -12 -20 -27 -20
-34 0 -8 -9 -20 -20 -28 -11 -8 -20 -19 -20 -25 0 -12 -62 -86 -138 -163 -29
-30 -50 -58 -45 -62 4 -5 40 -17 78 -29 107 -31 145 -45 145 -53 0 -5 7 -8 15
-8 14 0 53 -18 65 -30 3 -3 14 -10 25 -16 46 -25 70 -40 81 -49 37 -32 55 -45
59 -45 3 0 23 -18 45 -39 22 -22 54 -50 70 -63 16 -12 30 -27 30 -31 0 -4 30
-38 68 -75 37 -37 92 -96 122 -132 30 -35 73 -82 95 -105 22 -23 63 -67 90
-99 28 -33 61 -71 75 -86 14 -15 36 -42 50 -60 14 -19 40 -48 58 -66 17 -19
32 -37 32 -41 0 -4 19 -29 43 -55 23 -26 58 -66 77 -89 88 -106 119 -140 214
-234 122 -119 170 -162 216 -195 19 -13 44 -33 55 -43 11 -11 31 -26 45 -35
14 -9 48 -33 76 -54 28 -21 56 -38 62 -38 7 0 12 -4 12 -9 0 -5 8 -11 18 -14
23 -8 76 -40 80 -49 2 -5 12 -8 23 -8 10 0 19 -3 19 -7 0 -5 25 -19 55 -33 30
-14 55 -28 55 -32 0 -5 9 -8 20 -8 11 0 20 -4 20 -10 0 -5 6 -10 14 -10 12 0
44 -14 118 -51 10 -5 25 -9 33 -9 8 0 15 -4 15 -8 0 -4 21 -14 48 -21 26 -8
54 -18 62 -22 92 -46 355 -119 510 -141 88 -13 545 -16 610 -4 110 20 302 92
355 132 18 13 37 24 43 24 7 0 12 3 12 8 0 4 17 18 38 32 45 30 86 72 109 111
10 16 21 29 25 29 4 0 8 4 8 10 0 5 10 25 23 43 13 19 34 68 47 108 35 105 35
290 1 399 -23 74 -64 163 -88 188 -7 7 -13 18 -13 23 0 22 -201 209 -280 260
-93 61 -243 139 -266 139 -8 0 -14 5 -14 10 0 6 -9 10 -20 10 -11 0 -20 5 -20
10 0 6 -7 10 -15 10 -8 0 -23 4 -33 9 -9 5 -30 14 -47 21 -16 7 -38 16 -47 21
-10 5 -25 9 -33 9 -8 0 -15 5 -15 10 0 6 -7 10 -15 10 -8 0 -24 5 -35 10 -11
6 -29 15 -40 20 -11 6 -27 10 -35 10 -8 0 -15 5 -15 10 0 6 -7 10 -16 10 -9 0
-39 11 -66 25 -27 14 -80 37 -116 51 -37 15 -98 41 -137 59 -149 68 -165 75
-180 75 -8 0 -15 5 -15 10 0 6 -7 10 -15 10 -8 0 -30 9 -50 20 -20 11 -42 20
-50 20 -8 0 -15 5 -15 10 0 6 -9 10 -20 10 -11 0 -20 5 -20 10 0 6 -9 10 -20
10 -11 0 -20 5 -20 10 0 6 -9 10 -20 10 -11 0 -20 4 -20 9 0 5 -8 11 -17 14
-18 6 -73 37 -83 47 -3 3 -17 11 -32 19 -16 8 -28 18 -28 23 0 4 -4 8 -9 8
-41 0 -381 312 -381 348 0 5 -9 18 -20 30 -31 33 -109 175 -141 256 -75 187
-99 459 -61 681 20 113 58 249 87 305 7 14 23 48 36 75 13 28 27 52 30 55 3 3
12 20 20 38 8 17 17 32 21 32 5 0 8 7 8 15 0 8 4 15 8 15 5 0 15 12 23 28 8
15 22 34 31 43 10 9 18 21 18 26 0 18 192 207 264 260 39 29 82 62 96 73 14
11 30 20 37 20 6 0 13 3 15 8 3 7 154 83 208 104 14 6 33 14 42 19 10 5 27 9
38 9 11 0 20 5 20 10 0 6 13 10 29 10 17 0 32 4 35 9 3 5 18 11 33 14 16 4 51
11 78 17 86 19 157 30 243 39 46 5 86 12 90 16 9 9 457 -2 567 -14z"/>
</g>
</svg>
