<?xml version="1.0" encoding="UTF-8"?>
<svg width="220px" height="163px" viewBox="0 0 220 163" version="1.1" xmlns="http://www.w3.org/2000/svg" xmlns:xlink="http://www.w3.org/1999/xlink">
    <!-- Generator: Sketch 51.1 (57501) - http://www.bohemiancoding.com/sketch -->
    <title>Shape</title>
    <desc>Created with Sketch.</desc>
    <defs></defs>
    <g id="Page-1" stroke="none" stroke-width="1" fill="none" fill-rule="evenodd">
        <path d="M210.728897,91.4743124 C205.003689,84.5299791 196.415877,78.6157768 184.966559,73.7284143 L158.402166,62.2795893 C151.990109,59.6861606 147.217274,56.8250514 144.089147,53.6940676 C140.957729,50.566375 139.395311,46.1759766 139.395311,40.5272607 C139.395311,35.0321319 141.91449,30.2643479 146.952848,26.2173265 C151.991207,22.1735962 158.632579,20.149537 166.875869,20.149537 C178.326284,20.149537 191.378616,23.7379911 206.03506,30.911608 C211.834878,25.5700664 214.811591,19.2334994 214.966296,11.9073923 C199.240079,3.97242193 183.363545,0 167.333403,0 C159.547647,0 152.409241,1.07072185 145.921477,3.20668028 C139.431519,5.34592987 133.899419,8.47252542 129.318594,12.5941463 C124.738867,16.7157672 121.149914,21.4879393 118.555028,26.9051775 C115.957948,32.3246098 114.66215,38.1642127 114.66215,44.421792 C114.66215,61.8243131 125.117402,75.0295168 146.035586,84.033015 L173.057513,95.7111236 C186.948109,101.665917 193.896698,109.908062 193.896698,120.439752 C193.896698,126.850918 191.26341,132.042164 185.996833,136.010198 C180.72916,139.980426 173.590754,141.962797 164.584908,141.962797 C150.131447,141.962797 135.166689,137.008514 119.698314,127.120793 C115.905282,124.112679 112.332787,122.355203 103.126153,112.250266 C103.126153,112.250266 90.5017302,96.2464846 77.9606947,83.8037313 C73.7035452,79.5800847 68.3031098,76.4776243 61.1295936,75.1041163 C64.3356221,72.3549063 67.3880421,68.5415568 70.2901453,63.6552913 L104.86961,5.03765852 L103.266595,2.97739661 C98.3785539,2.51882926 93.8767281,2.29064264 89.7556319,2.29064264 C85.6345357,2.29064264 82.6172262,3.01689045 80.7102865,4.46499786 C78.7989581,5.91749348 76.7779093,8.47142837 74.6416542,12.1355789 L45.3298638,61.8232161 C43.956165,64.2663488 42.6965755,65.9437399 41.551095,66.8608746 C40.4067118,67.7758152 38.9309732,68.2343825 36.794718,68.2343825 L24.1384761,68.6907558 L24.1384761,2.97739661 C20.8468657,2.36853326 16.9144885,2.06135896 11.9551289,2.06135896 C6.99247765,2.06135896 2.19440692,2.36853326 0,2.97739661 L0,159.364221 C2.19440692,159.973084 6.99138045,160.279161 11.9551289,160.279161 C16.9155857,160.279161 20.8468657,159.973084 24.1384761,159.364221 L24.1384761,89.5281438 C28.52729,89.2242607 34.1614297,89.0695765 40.3452684,89.0695765 C46.5291071,89.0695765 51.1988051,90.7875584 56.2316773,92.7787061 C63.795798,95.7725585 73.2098037,108.220797 73.2098037,108.220797 C74.9302187,111.01718 84.2268236,122.368368 87.0422477,125.703403 C92.3911146,132.036679 102.84088,141.831151 111.026018,147.055308 C111.051254,147.072861 111.071003,147.08054 111.096239,147.098093 C121.075305,153.671623 138.122555,162.341617 161.611486,162.341617 C180.997974,162.341617 195.464602,158.105903 205.006981,149.633378 C214.546067,141.160852 219.32,130.055404 219.32,116.319228 C219.318902,106.702478 216.454104,98.4230339 210.728897,91.4743124 L210.728897,91.4743124 Z" id="Shape" fill="#222222"></path>
    </g>
</svg>